<svg width="15" height="15" viewBox="0 0 15 15" fill="none" xmlns="http://www.w3.org/2000/svg">
<g id="Icon" clip-path="url(#clip0_547_257)">
<path id="Vector" d="M6.13124 12.1571C6.41256 12.1571 6.6548 12.2587 6.85798 12.4618C7.06115 12.665 7.16274 12.9151 7.16274 13.212C7.16274 13.509 7.06115 13.759 6.85798 13.9622C6.6548 14.1654 6.40474 14.267 6.10779 14.267C5.81085 14.267 5.56078 14.1654 5.35761 13.9622C5.15444 13.759 5.05285 13.509 5.05285 13.212C5.05285 12.9151 5.15444 12.665 5.35761 12.4618C5.56078 12.2587 5.81866 12.1571 6.13124 12.1571ZM11.6638 12.1571C11.9452 12.1571 12.1874 12.2587 12.3906 12.4618C12.5938 12.665 12.6953 12.9151 12.6953 13.212C12.6953 13.509 12.5938 13.759 12.3906 13.9622C12.1874 14.1654 11.9373 14.267 11.6404 14.267C11.3435 14.267 11.0934 14.1654 10.8902 13.9622C10.687 13.759 10.5855 13.509 10.5855 13.212C10.5855 12.9151 10.687 12.665 10.8902 12.4618C11.0934 12.2587 11.3513 12.1571 11.6638 12.1571ZM3.22428 1.18564C3.53685 1.18564 3.81036 1.27941 4.04479 1.46696C4.27922 1.65451 4.44332 1.90457 4.5371 2.21714L6.22501 9.48455H11.8514L12.9767 4.98345H7.25651C7.06897 4.98345 6.89705 4.91312 6.74076 4.77246C6.58447 4.6318 6.50633 4.45988 6.50633 4.25671C6.50633 4.05353 6.58447 3.88161 6.74076 3.74095C6.89705 3.6003 7.06897 3.52997 7.25651 3.52997H13.1642C13.6018 3.52997 13.9535 3.70188 14.2192 4.04572C14.4848 4.38955 14.5708 4.76464 14.477 5.17099L13.258 9.95341C13.1955 10.266 13.0392 10.516 12.7891 10.7036C12.5391 10.8911 12.2734 10.9849 11.992 10.9849H6.13124C5.81866 10.9537 5.54516 10.8443 5.31072 10.6567C5.07629 10.4692 4.92782 10.2347 4.8653 9.95341L3.1305 2.63912H1.34882C1.16127 2.63912 0.989353 2.56879 0.833065 2.42813C0.676777 2.28747 0.598633 2.11556 0.598633 1.91238C0.598633 1.70921 0.676777 1.53729 0.833065 1.39663C0.989353 1.25597 1.16127 1.18564 1.34882 1.18564H3.22428Z" fill="#007341"/>
</g>
<defs>
<clipPath id="clip0_547_257">
<rect width="14.3121" height="14.0659" fill="white" transform="matrix(1 0 0 -1 0.335449 14.7828)"/>
</clipPath>
</defs>
</svg>
