<svg width="54" height="54" viewBox="0 0 54 54" fill="none" xmlns="http://www.w3.org/2000/svg">
<path id="Vector" d="M24.57 45.9H29.295V42.525C31.545 42.12 33.48 41.2425 35.1 39.8925C36.72 38.5425 37.53 36.54 37.53 33.885C37.53 31.995 36.99 30.2625 35.91 28.6875C34.83 27.1125 32.67 25.74 29.43 24.57C26.73 23.67 24.8625 22.8825 23.8275 22.2075C22.7925 21.5325 22.275 20.61 22.275 19.44C22.275 18.27 22.6913 17.3475 23.5238 16.6725C24.3563 15.9975 25.56 15.66 27.135 15.66C28.575 15.66 29.7 16.0088 30.51 16.7063C31.32 17.4038 31.905 18.27 32.265 19.305L36.585 17.55C36.09 15.975 35.1788 14.6025 33.8512 13.4325C32.5238 12.2625 31.05 11.61 29.43 11.475V8.1H24.705V11.475C22.455 11.97 20.7 12.96 19.44 14.445C18.18 15.93 17.55 17.595 17.55 19.44C17.55 21.555 18.1688 23.265 19.4062 24.57C20.6438 25.875 22.59 27 25.245 27.945C28.08 28.98 30.0488 29.9025 31.1513 30.7125C32.2537 31.5225 32.805 32.58 32.805 33.885C32.805 35.37 32.2763 36.4613 31.2188 37.1588C30.1613 37.8563 28.89 38.205 27.405 38.205C25.92 38.205 24.6038 37.7438 23.4563 36.8213C22.3088 35.8988 21.465 34.515 20.925 32.67L16.47 34.425C17.1 36.585 18.0788 38.3288 19.4062 39.6562C20.7338 40.9838 22.455 41.895 24.57 42.39V45.9ZM27 54C23.265 54 19.755 53.2913 16.47 51.8738C13.185 50.4563 10.3275 48.5325 7.8975 46.1025C5.4675 43.6725 3.54375 40.815 2.12625 37.53C0.70875 34.245 0 30.735 0 27C0 23.265 0.70875 19.755 2.12625 16.47C3.54375 13.185 5.4675 10.3275 7.8975 7.8975C10.3275 5.4675 13.185 3.54375 16.47 2.12625C19.755 0.70875 23.265 0 27 0C30.735 0 34.245 0.70875 37.53 2.12625C40.815 3.54375 43.6725 5.4675 46.1025 7.8975C48.5325 10.3275 50.4563 13.185 51.8738 16.47C53.2913 19.755 54 23.265 54 27C54 30.735 53.2913 34.245 51.8738 37.53C50.4563 40.815 48.5325 43.6725 46.1025 46.1025C43.6725 48.5325 40.815 50.4563 37.53 51.8738C34.245 53.2913 30.735 54 27 54ZM27 48.6C33.03 48.6 38.1375 46.5075 42.3225 42.3225C46.5075 38.1375 48.6 33.03 48.6 27C48.6 20.97 46.5075 15.8625 42.3225 11.6775C38.1375 7.4925 33.03 5.4 27 5.4C20.97 5.4 15.8625 7.4925 11.6775 11.6775C7.4925 15.8625 5.4 20.97 5.4 27C5.4 33.03 7.4925 38.1375 11.6775 42.3225C15.8625 46.5075 20.97 48.6 27 48.6Z" fill="url(#paint0_radial_540_694)"/>
<defs>
<radialGradient id="paint0_radial_540_694" cx="0" cy="0" r="1" gradientUnits="userSpaceOnUse" gradientTransform="translate(-10.8273 -74.9478) scale(157.848)">
<stop stop-color="white"/>
<stop offset="0.5" stop-color="#FBB03B"/>
<stop offset="1" stop-color="#C4272E"/>
</radialGradient>
</defs>
</svg>
