<svg width="100" height="133" viewBox="0 0 100 133" fill="none" xmlns="http://www.w3.org/2000/svg">
<g id="Frame" clip-path="url(#clip0_59_982)">
<path id="Vector" fill-rule="evenodd" clip-rule="evenodd" d="M88.1354 87.3543L86.3852 73.0608C75.7043 89.0372 61.0518 102.658 44.7388 112.755C57.3943 114.438 70.319 115.246 83.356 115.627L88.1354 87.3543ZM87.0135 72.1632L89.3695 86.7933L97.5373 99.3366L89.3247 89.2616L86.991 109.973L91.5237 102.815L99.4221 102.209L92.1071 62.7838C91.5012 65.7457 88.7413 69.5155 87.0135 72.1632Z" fill="#1A1B1A"/>
<path id="Vector_2" opacity="0.2" fill-rule="evenodd" clip-rule="evenodd" d="M77.9703 84.2577C69.3314 94.4673 59.032 103.443 47.8799 110.735C58.8076 112.082 69.8026 112.777 80.7303 113.136L77.9703 84.2577Z" fill="url(#paint0_linear_59_982)"/>
<path id="Vector_3" fill-rule="evenodd" clip-rule="evenodd" d="M8.05106 81.767C26.6977 71.8041 41.9337 61.572 53.5121 43.2844C54.4994 41.7361 55.3969 40.5918 56.2945 39.7167C55.6886 38.9762 55.2847 38.0562 55.2847 37.024C55.2847 35.386 56.2272 33.9948 57.5959 33.3216C57.6633 34.5108 57.7754 37.3606 57.8203 38.6396C58.2467 38.0786 60.0418 37.5625 61.1188 37.2259C60.6925 21.7656 57.2369 10.8828 52.794 5.22821C55.7784 2.51311 58.9198 2.82726 61.8144 5.54235C65.1578 8.68378 68.0749 14.9442 69.6456 24.3012L72.9665 24.1441C71.2836 13.755 67.9402 6.73161 64.0808 3.09652C59.9296 -0.830268 54.7686 -1.14441 50.5053 2.80482C46.0175 -1.00978 40.8117 -0.561003 36.7952 3.67993C32.8684 7.80867 29.7494 15.8866 28.8294 27.8914L18.8217 28.3626C15.4559 43.2844 13.5261 58.7448 12.4266 74.5192C9.66665 76.1124 6.8618 77.6607 3.9672 79.2314C-0.498125 81.5875 -0.475686 87.7581 2.53111 91.3259L11.2374 101.536L11.1476 105.597C12.7183 106.091 14.289 106.539 15.8598 106.988L25.1045 117.849C28.1562 121.416 33.1825 121.708 36.5483 119.015L43.2575 113.675C41.5298 114.73 39.7571 115.739 38.0069 116.682C35.2244 118.208 32.0606 118.589 29.9962 116.166L7.42277 89.6206C5.44816 87.2869 5.31352 83.2031 8.05106 81.767ZM88.7186 45.8873C88.8307 42.5215 86.2054 39.7167 82.8396 39.6045C79.4738 39.4923 76.6465 42.14 76.5567 45.4834C76.4445 48.8492 79.0699 51.6765 82.4357 51.7663C85.8015 51.9009 88.6064 49.2531 88.7186 45.8873ZM78.6884 45.7976C78.7782 43.3069 80.865 41.3098 83.3781 41.3996C85.8913 41.4893 87.8659 43.5761 87.7761 46.1117C87.6864 48.6024 85.5996 50.577 83.0864 50.4873C80.5733 50.42 78.5987 48.3107 78.6884 45.7976ZM56.0252 44.8776C44.1102 63.6813 28.605 74.1602 9.44226 84.3923C8.45496 84.9308 9.12812 87.0176 9.68909 87.6908L11.5964 89.9347C11.013 89.2615 10.3623 87.1523 11.3496 86.6362C30.5123 76.4041 46.0175 65.9252 57.9325 47.099C58.8525 45.6405 60.0193 43.98 61.5676 43.1273C64.2827 41.624 76.2875 37.6074 79.5635 37.0689C75.7265 37.6972 62.5325 39.3352 59.6828 40.9059C58.112 41.7361 56.9452 43.4191 56.0252 44.8776ZM94.3731 38.6172C95.1809 33.3665 91.7254 28.6543 83.6698 29.9558L74.7616 25.6924L61.8144 26.2982C62.1735 28.9909 62.3978 31.6611 62.5325 34.3313C63.0934 34.9821 63.43 35.7899 63.4973 36.7099C71.149 35.3635 78.8679 34.1518 86.542 32.8728C90.1995 32.267 93.4307 34.825 93.2736 38.5723L92.8922 47.9517L94.3731 38.6172ZM34.3718 38.1908C34.3718 40.4796 32.5318 42.3196 30.243 42.3196C27.9767 42.3196 26.1143 40.4796 26.1143 38.1908C26.1143 36.5303 27.124 35.0718 28.5377 34.4435C28.5152 35.6777 28.5377 36.9342 28.5601 38.2357C28.5826 39.1557 29.3455 39.8737 30.2655 39.8513C31.1855 39.8288 31.9035 39.0659 31.8811 38.1459C31.4772 21.2944 34.7532 10.6135 39.1737 5.94625C42.2029 2.78238 45.5687 2.71506 48.755 5.72186C52.3453 9.11012 55.4642 16.0437 56.9003 26.5451L33.721 27.6446C33.4967 30.3148 33.4293 32.985 33.4293 35.6104C34.0128 36.3284 34.3718 37.2259 34.3718 38.1908Z" fill="#1A1B1A"/>
<path id="Vector_4" opacity="0.3" fill-rule="evenodd" clip-rule="evenodd" d="M12.4268 74.4969C25.172 67.0696 36.0324 58.9019 44.963 46.6952C35.5612 56.9273 24.9252 63.614 12.8082 69.2462C12.6736 70.9964 12.539 72.7466 12.4268 74.4969Z" fill="url(#paint1_linear_59_982)"/>
<g id="Group">
<path id="Vector_5" d="M41.44 100.346C41.2605 100.459 40.6771 100.907 39.6898 101.693C38.0966 100.414 36.5483 99.2244 35.0225 98.1249C33.721 98.9552 32.801 99.5834 32.2401 99.9649C31.6791 100.346 30.8937 100.907 29.8616 101.648C30.2655 103.465 30.804 105.328 31.4547 107.28C30.7816 107.617 30.4225 107.818 30.3552 107.863C30.2879 107.908 29.9064 108.222 29.2333 108.783C28.0216 101.872 26.6753 95.2752 25.1494 88.9475C25.6879 88.6782 26.0021 88.5211 26.0694 88.4762C26.1367 88.4314 26.406 88.207 26.8548 87.7806C34.5513 93.2557 40.1161 97.003 43.5492 99.0674C42.3151 99.8078 41.6195 100.234 41.44 100.346ZM29.525 100.032L33.6088 97.2723C31.0733 95.4098 29.2108 94.1084 28.0216 93.323C28.4255 95.4771 28.9191 97.721 29.525 100.032Z" fill="#1A1B1A"/>
<path id="Vector_6" d="M41.4625 90.922L39.1064 88.0947C37.2664 85.8733 35.6059 84.0333 34.1025 82.5299C34.9552 81.9465 35.5611 81.4977 35.9201 81.1836C36.2791 80.8694 36.8176 80.3758 37.5357 79.6802C38.7698 81.3855 40.3181 83.3377 42.1581 85.5591L44.5141 88.3864L47.7005 92.1337C49.0468 93.7493 49.6751 95.2751 49.6077 96.7337C49.5404 98.1922 48.8224 99.6956 47.4761 101.244L46.3766 100.571C46.758 99.7853 46.9151 99.1571 46.8927 98.7083C46.8702 98.2371 46.5785 97.6312 46.0175 96.8683C44.8283 95.0956 43.3024 93.121 41.4625 90.922Z" fill="#1A1B1A"/>
<path id="Vector_7" d="M57.2147 86.771C57.1025 86.8832 56.8108 87.2422 56.362 87.848C54.522 86.771 51.403 85.1105 47.0275 82.8442C42.6294 80.5779 40.0265 79.2764 39.2188 78.8949C39.8695 78.334 40.4304 77.8179 40.8792 77.3467C41.328 76.8754 41.7992 76.3145 42.2929 75.6862C45.3445 77.4813 49.4284 79.77 54.5445 82.5525L54.5893 82.5076C51.1786 75.7535 48.9796 71.4901 47.9923 69.7399C48.3962 69.4482 48.7328 69.1565 49.0245 68.8648C49.2938 68.5731 49.563 68.2365 49.8547 67.8102C50.5952 68.2814 52.6596 69.336 56.0703 70.974C59.481 72.6121 61.6576 73.6667 62.6224 74.1379L62.6673 74.093C58.6732 66.9799 56.3171 62.8736 55.6215 61.7966C55.9357 61.5946 56.2049 61.3702 56.4293 61.1458C56.6537 60.9215 56.8781 60.6298 57.1025 60.2483C61.119 68.0346 64.2156 73.7565 66.3697 77.4364C65.7863 77.9301 65.4497 78.2218 65.3375 78.334C65.2253 78.4462 64.9561 78.8052 64.5073 79.3886C61.119 77.5037 56.9678 75.4842 52.0313 73.3077L51.9864 73.3526C52.0313 73.4199 52.9064 75.1701 54.6118 78.6032C56.3171 82.0364 57.5737 84.4598 58.3366 85.8061C57.6859 86.3446 57.3269 86.6588 57.2147 86.771Z" fill="#1A1B1A"/>
<path id="Vector_8" d="M79.4514 60.742C79.3168 60.899 78.9129 61.5273 78.2173 62.5595C76.31 61.8415 74.4475 61.2132 72.6749 60.6746C71.71 61.8863 71.0144 62.7614 70.6105 63.3C70.2066 63.8385 69.6232 64.6239 68.8827 65.6336C69.8476 67.2268 70.9471 68.8424 72.2037 70.458C71.6876 70.9965 71.3959 71.2882 71.351 71.3555C71.3061 71.4228 71.0368 71.8267 70.5656 72.5896C67.2223 66.419 63.834 60.5849 60.3784 55.0874C60.8048 54.661 61.0516 54.4142 61.0965 54.3469C61.1413 54.2796 61.3208 53.9879 61.6126 53.4493C70.6554 56.1869 77.1402 57.982 81.0221 58.8347C80.1021 59.9566 79.5636 60.5849 79.4514 60.742ZM68.03 64.2424L71.0144 60.3156C68.0076 59.3732 65.831 58.7 64.4623 58.341C65.5393 60.2707 66.7286 62.2229 68.03 64.2424Z" fill="#1A1B1A"/>
</g>
<g id="Group_2">
<path id="Vector_9" d="M8.36565 128.776L6.99688 132.815H6.54811L5.35885 129.36L4.16959 132.815H3.72082L2.35205 128.776H2.80083L3.96764 132.254L5.17934 128.776H5.58324L6.77249 132.277L7.96175 128.776H8.36565Z" fill="black"/>
<path id="Vector_10" d="M12.0006 132.456V132.815H9.15088V128.776H11.9333V129.135H9.57722V130.571H11.664V130.93H9.57722V132.434H12.0006V132.456Z" fill="black"/>
<path id="Vector_11" d="M14.5361 128.776H16.1742C17.4756 128.776 18.3507 129.607 18.3507 130.796C18.3507 131.985 17.4756 132.815 16.1742 132.815H14.5361V128.776ZM16.1517 132.456C17.2288 132.456 17.9244 131.783 17.9244 130.796C17.9244 129.831 17.2288 129.135 16.1517 129.135H14.9625V132.434H16.1517V132.456Z" fill="black"/>
<path id="Vector_12" d="M22.1656 132.456V132.815H19.2935V128.776H22.0759V129.135H19.7198V130.571H21.8066V130.93H19.7198V132.434H22.1656V132.456Z" fill="black"/>
<path id="Vector_13" d="M23.1753 128.776H23.6016V132.456H25.8679V132.815H23.1753V128.776Z" fill="black"/>
<path id="Vector_14" d="M26.5859 128.776H27.0123V132.815H26.5859V128.776Z" fill="black"/>
<path id="Vector_15" d="M31.6347 128.776L29.8396 132.815H29.4133L27.6182 128.776H28.0894L29.6377 132.299L31.2084 128.776H31.6347Z" fill="black"/>
<path id="Vector_16" d="M35.0904 132.456V132.815H32.2183V128.776H35.0007V129.135H32.6446V130.571H34.7314V130.93H32.6446V132.434H35.0904V132.456Z" fill="black"/>
<path id="Vector_17" d="M38.8601 132.815L37.9401 131.514C37.8279 131.536 37.7381 131.536 37.6259 131.536H36.5489V132.815H36.1001V128.776H37.6259C38.6581 128.776 39.2864 129.292 39.2864 130.168C39.2864 130.796 38.9498 131.245 38.3664 131.447L39.3537 132.838H38.8601V132.815ZM38.8376 130.145C38.8376 129.494 38.4113 129.135 37.6035 129.135H36.5264V131.155H37.6035C38.4113 131.177 38.8376 130.796 38.8376 130.145Z" fill="black"/>
<path id="Vector_18" d="M47.3417 128.776L45.973 132.815H45.5242L44.3349 129.36L43.1457 132.815H42.6969L41.3281 128.776H41.7769L42.9437 132.254L44.1554 128.776H44.5593L45.7486 132.277L46.9378 128.776H47.3417Z" fill="black"/>
<path id="Vector_19" d="M51.5152 128.776V132.815H51.0889V130.953H48.5533V132.815H48.127V128.776H48.5533V130.571H51.0889V128.776H51.5152Z" fill="black"/>
<path id="Vector_20" d="M55.3523 131.738H53.086L52.5923 132.815H52.1436L53.9835 128.776H54.4099L56.2499 132.815H55.8011L55.3523 131.738ZM55.1952 131.379L54.2304 129.203L53.2655 131.379H55.1952Z" fill="black"/>
<path id="Vector_21" d="M57.5513 129.135H56.1377V128.776H59.4138V129.135H58.0001V132.815H57.5738V129.135H57.5513Z" fill="black"/>
<path id="Vector_22" d="M67.1552 128.776L65.7864 132.815H65.3377L64.1484 129.36L62.9591 132.815H62.5104L61.1416 128.776H61.5904L62.7572 132.254L63.9689 128.776H64.3728L65.562 132.277L66.7513 128.776H67.1552Z" fill="black"/>
<path id="Vector_23" d="M70.7906 132.456V132.815H67.9185V128.776H70.7009V129.135H68.3448V130.571H70.4316V130.93H68.3448V132.434H70.7906V132.456Z" fill="black"/>
<path id="Vector_24" d="M72.9668 130.796C72.9668 129.607 73.8643 128.732 75.0985 128.732C75.6819 128.732 76.2204 128.934 76.5794 129.315L76.3102 129.584C75.9736 129.248 75.5697 129.113 75.1209 129.113C74.1336 129.113 73.4156 129.831 73.4156 130.796C73.4156 131.761 74.1561 132.479 75.1209 132.479C75.5921 132.479 75.996 132.344 76.3102 131.985L76.5794 132.254C76.2204 132.658 75.6819 132.86 75.0985 132.86C73.8643 132.86 72.9668 131.985 72.9668 130.796Z" fill="black"/>
<path id="Vector_25" d="M77.0283 130.796C77.0283 129.607 77.9259 128.732 79.16 128.732C80.3717 128.732 81.2917 129.607 81.2917 130.796C81.2917 131.985 80.3941 132.86 79.16 132.86C77.9259 132.86 77.0283 131.963 77.0283 130.796ZM80.8429 130.796C80.8429 129.831 80.1249 129.113 79.1376 129.113C78.1503 129.113 77.4322 129.831 77.4322 130.796C77.4322 131.761 78.1503 132.479 79.1376 132.479C80.1249 132.479 80.8429 131.761 80.8429 130.796Z" fill="black"/>
<path id="Vector_26" d="M86.4529 128.776V132.815H86.049V129.584L84.4558 132.299H84.2539L82.6607 129.584V132.815H82.2568V128.776H82.6159L84.3661 131.783L86.1163 128.776H86.4529Z" fill="black"/>
<path id="Vector_27" d="M91.9724 128.776V132.815H91.5685V129.584L89.9754 132.299H89.7734L88.1803 129.584V132.815H87.7764V128.776H88.1354L89.8856 131.783L91.6358 128.776H91.9724Z" fill="black"/>
<path id="Vector_28" d="M93.2739 128.776H93.7003V132.815H93.2739V128.776Z" fill="black"/>
<path id="Vector_29" d="M95.8096 129.135H94.396V128.776H97.6721V129.135H96.236V132.815H95.8096V129.135Z" fill="black"/>
</g>
</g>
<defs>
<linearGradient id="paint0_linear_59_982" x1="97.508" y1="136.919" x2="68.7022" y2="104.08" gradientUnits="userSpaceOnUse">
<stop stop-color="white"/>
<stop offset="1" stop-color="white" stop-opacity="0"/>
</linearGradient>
<linearGradient id="paint1_linear_59_982" x1="12.4245" y1="60.5962" x2="44.9656" y2="60.5962" gradientUnits="userSpaceOnUse">
<stop stop-color="white"/>
<stop offset="1" stop-color="white" stop-opacity="0"/>
</linearGradient>
<clipPath id="clip0_59_982">
<rect width="99" height="132.86" fill="white" transform="translate(0.421875)"/>
</clipPath>
</defs>
</svg>
