<svg width="73" height="95" viewBox="0 0 73 95" fill="none" xmlns="http://www.w3.org/2000/svg">
<path id="Vector" d="M36.7898 21.2334C32.652 21.2334 29.0587 22.7034 26.0098 25.6434C22.9609 28.5834 21.4365 32.1767 21.4365 36.4234C21.4365 40.6701 22.9609 44.3179 26.0098 47.3667C29.0587 50.4156 32.652 51.9401 36.7898 51.9401C40.9276 51.9401 44.5209 50.4156 47.5698 47.3667C50.6187 44.3179 52.1431 40.6701 52.1431 36.4234C52.1431 32.1767 50.6187 28.5834 47.5698 25.6434C44.5209 22.7034 40.9276 21.2334 36.7898 21.2334ZM36.7898 42.1401C35.2653 42.1401 33.9587 41.5956 32.8698 40.5067C31.7809 39.4179 31.2365 38.0567 31.2365 36.4234C31.2365 34.7901 31.7265 33.4834 32.7065 32.5034C33.6865 31.5234 35.0476 31.0334 36.7898 31.0334C38.532 31.0334 39.8931 31.5234 40.8731 32.5034C41.8531 33.4834 42.3431 34.7901 42.3431 36.4234C42.3431 38.0567 41.7987 39.4179 40.7098 40.5067C39.6209 41.5956 38.3142 42.1401 36.7898 42.1401ZM62.5965 12.0867C59.112 8.16674 55.1376 5.17229 50.6731 3.10341C46.2087 1.03452 41.5809 7.62939e-05 36.7898 7.62939e-05C31.9987 7.62939e-05 27.262 1.08896 22.5798 3.26674C17.8976 5.44452 13.9231 8.38452 10.6565 12.0867C7.38979 15.789 4.8309 20.0356 2.97979 24.8267C1.12868 29.6179 0.203125 34.6267 0.203125 39.8534C0.203125 43.1201 0.747569 46.3867 1.83646 49.6534C2.92535 52.9201 4.3409 55.969 6.08312 58.8001C10.0031 65.9867 13.7053 71.649 17.1898 75.7867C22.852 82.3201 26.5542 86.4579 28.2965 88.2001L32.5431 92.4467C33.632 93.5356 34.8298 94.0801 36.1365 94.0801C37.4431 94.0801 38.532 93.5356 39.4031 92.4467L40.0565 92.1201C40.2742 91.9023 40.6009 91.7934 41.0365 91.7934L44.3031 88.2001C46.2631 86.4579 50.0742 82.3201 55.7365 75.7867C60.092 70.5601 63.7942 64.8979 66.8431 58.8001C68.8031 54.6623 70.1098 51.5045 70.7631 49.3267C71.852 45.8423 72.3965 42.6845 72.3965 39.8534C73.0498 34.8445 72.5053 29.9445 70.7631 25.1534C69.0209 20.3623 66.2987 16.0067 62.5965 12.0867ZM58.3498 53.9001C54.8653 60.2156 51.3809 65.3334 47.8965 69.2534C45.5009 72.5201 42.0165 76.549 37.4431 81.3401L36.1365 82.6467L34.5031 81.3401C29.9298 76.549 26.4453 72.5201 24.0498 69.2534L20.7831 63.7001C18.1698 59.5623 16.2098 56.2956 14.9031 53.9001C12.2898 49.109 10.9831 44.4267 10.9831 39.8534C10.9831 36.1512 11.6365 32.449 12.9431 28.7467C14.2498 25.0445 16.1009 21.8323 18.4965 19.1101C20.892 16.3879 23.7231 14.2645 26.9898 12.7401C30.2565 11.2156 33.5231 10.4534 36.7898 10.4534C40.0565 10.4534 43.3231 11.2156 46.5898 12.7401C49.8565 14.2645 52.6876 16.3334 55.0831 18.9467C60.092 24.8267 62.5965 31.7956 62.5965 39.8534C62.5965 44.4267 61.1809 49.109 58.3498 53.9001Z" fill="url(#paint0_radial_59_2173)"/>
<defs>
<radialGradient id="paint0_radial_59_2173" cx="0" cy="0" r="1" gradientUnits="userSpaceOnUse" gradientTransform="translate(-11.6841 194.026) scale(162.464 210.937)">
<stop stop-color="white"/>
<stop offset="0.28" stop-color="#E2E432"/>
<stop offset="0.8" stop-color="#399A48"/>
</radialGradient>
</defs>
</svg>
